<svg width="51" height="45" viewBox="0 0 51 45" fill="none" xmlns="http://www.w3.org/2000/svg">
<rect width="51" height="45" rx="8" fill="#EA7B26"/>
<path d="M27.84 28.52C27.84 25.9353 29.9353 23.84 32.52 23.84V23.84V32.42C32.52 35.0047 30.4247 37.1 27.84 37.1V37.1V28.52Z" fill="white"/>
<path d="M33.3893 7.45999C34.6816 9.69837 33.9147 12.5602 31.6764 13.8526L20.0397 20.5713V33.9795C20.0397 36.5642 17.9447 38.6602 15.36 38.6602V20.7198C15.36 19.7346 15.6643 18.8205 16.1842 18.0664C16.5794 17.4094 17.1421 16.8402 17.8531 16.4297L33.3893 7.45999Z" fill="white"/>
<path d="M32.8805 15.26V15.26C34.1728 17.4984 33.4059 20.3606 31.1675 21.653L22.38 26.7264V26.7264C21.0877 24.488 21.8546 21.6258 24.093 20.3334L32.8805 15.26Z" fill="white"/>
</svg>
